<svg width="22" height="22" viewBox="0 0 22 22" fill="none" xmlns="http://www.w3.org/2000/svg">
<path d="M16.56 4.35999C15.88 4.35999 15.34 4.90999 15.34 5.57999C15.34 6.24999 15.89 6.79999 16.56 6.79999C17.23 6.79999 17.78 6.24999 17.78 5.57999C17.78 4.90999 17.23 4.35999 16.56 4.35999Z" fill="white"/>
<path d="M11.12 5.92999C8.27998 5.92999 5.97998 8.23999 5.97998 11.07C5.97998 13.9 8.28998 16.21 11.12 16.21C13.95 16.21 16.26 13.9 16.26 11.07C16.26 8.23999 13.95 5.92999 11.12 5.92999ZM11.12 14.37C9.29998 14.37 7.82998 12.89 7.82998 11.08C7.82998 9.26999 9.30998 7.78999 11.12 7.78999C12.93 7.78999 14.41 9.26999 14.41 11.08C14.41 12.89 12.93 14.37 11.12 14.37Z" fill="white"/>
<path d="M15.2 21.51H6.85997C3.39997 21.51 0.589966 18.7 0.589966 15.24V6.9C0.589966 3.44 3.39997 0.630005 6.85997 0.630005H15.2C18.66 0.630005 21.47 3.44 21.47 6.9V15.24C21.47 18.7 18.66 21.51 15.2 21.51ZM6.85997 2.59C4.47997 2.59 2.54997 4.52 2.54997 6.9V15.24C2.54997 17.62 4.47997 19.55 6.85997 19.55H15.2C17.58 19.55 19.51 17.62 19.51 15.24V6.9C19.51 4.52 17.58 2.59 15.2 2.59H6.85997Z" fill="white"/>
</svg>
