<svg width="25" height="24" viewBox="0 0 25 24" fill="none" xmlns="http://www.w3.org/2000/svg">
<path d="M12.24 1.39001C11.21 1.39001 9.25997 4.70001 9.02997 10.81H15.45C15.22 4.70001 13.27 1.39001 12.24 1.39001Z" fill="white"/>
<path d="M9.02997 13.25C9.25997 19.36 11.21 22.67 12.24 22.67C13.27 22.67 15.22 19.36 15.45 13.25H9.02997Z" fill="white"/>
<path d="M17.89 10.81H24.04C23.53 5.78001 19.88 1.69001 15.08 0.51001C16.78 2.63001 17.73 6.65001 17.89 10.81Z" fill="white"/>
<path d="M6.59995 10.81C6.75995 6.65001 7.70995 2.64001 9.40995 0.51001C4.60995 1.69001 0.959951 5.78001 0.449951 10.81H6.59995Z" fill="white"/>
<path d="M17.89 13.25C17.73 17.41 16.78 21.43 15.08 23.55C19.88 22.37 23.53 18.28 24.04 13.25H17.89Z" fill="white"/>
<path d="M6.59995 13.25H0.449951C0.959951 18.28 4.60995 22.37 9.40995 23.55C7.70995 21.43 6.75995 17.41 6.59995 13.25Z" fill="white"/>
</svg>
